# xmcd
#
# Track frame offsets:
#	150
#	13114
#	24754
#	38648
#	52681
#	67375
#	83449
#	97343
#	112114
#	122219
#	138097
#	150594
#
# Disc length: 2234 seconds
#
# Revision: 1
# Processed by: cddbd v1.5.2PL0 Copyright (c) Steve Scherf et al.
# Submitted via: audiograbber 1.83.01
#
DISCID=9408b80c
DTITLE=Udo Jürgens - Das Goldene Udo Jürgens Album
DYEAR=1970
DGENRE=Chanson
TTITLE0=Anuschka
TTITLE1=Dein Letzter Brief
TTITLE2=Immer Wieder Geht Die Sonne Auf
TTITLE3=Cotton Fields
TTITLE4=Du Gingst Vorbei
TTITLE5=He's Got The Whole World - Jericho
TTITLE6=Mathilda
TTITLE7=Jenny
TTITLE8=Es Wird Nacht, Senorita
TTITLE9=Was Ich Dir Sagen Will
TTITLE10=Was Wirklich Zählt Auf Dieser Welt
TTITLE11=Matador
EXTD=
EXTT0=
EXTT1=
EXTT2=
EXTT3=
EXTT4=
EXTT5=
EXTT6=
EXTT7=
EXTT8=
EXTT9=
EXTT10=
EXTT11=
PLAYORDER=
